HIERARCHY
ROOT joint_Root
{
	OFFSET 0.0 0.0 0.0
	CHANNELS 6 Xposition Yposition Zposition Zrotation Xrotation Yrotation 
	JOINT Hips
	{
		OFFSET -17.1583 93.1646 452.98
		CHANNELS 6 Xposition Yposition Zposition Zrotation Xrotation Yrotation 
		JOINT Spine
		{
			OFFSET 15.7357 0.0 0.0
			CHANNELS 6 Xposition Yposition Zposition Zrotation Xrotation Yrotation 
			JOINT Chest
			{
				OFFSET 8.98455 -0.406207 0.0
				CHANNELS 6 Xposition Yposition Zposition Zrotation Xrotation Yrotation 
				JOINT Neck
				{
					OFFSET 16.3773 0.0 0.0
					CHANNELS 6 Xposition Yposition Zposition Zrotation Xrotation Yrotation 
					JOINT Head
					{
						OFFSET 6.45672 0.0 0.0
						CHANNELS 6 Xposition Yposition Zposition Zrotation Xrotation Yrotation 
						End Site
						{
							OFFSET 0.0 0.0 0.0
						}
					}
				}
				JOINT Shoulder_L
				{
					OFFSET 12.9942 -0.242716 4.98039
					CHANNELS 6 Xposition Yposition Zposition Zrotation Xrotation Yrotation 
					JOINT UpperArm_L
					{
						OFFSET 5.34809 0.0 0.0
						CHANNELS 6 Xposition Yposition Zposition Zrotation Xrotation Yrotation 
						JOINT LowerArm_L
						{
							OFFSET 24.3286 1.87007e-05 0.0
							CHANNELS 6 Xposition Yposition Zposition Zrotation Xrotation Yrotation 
							JOINT Hand_L
							{
								OFFSET 22.2916 0.0 0.0
								CHANNELS 6 Xposition Yposition Zposition Zrotation Xrotation Yrotation 
								End Site
								{
									OFFSET 0.0 0.0 0.0
								}
							}
						}
					}
				}
				JOINT Shoulder_R
				{
					OFFSET 12.9945 -0.242716 -4.98039
					CHANNELS 6 Xposition Yposition Zposition Zrotation Xrotation Yrotation 
					JOINT UpperArm_R
					{
						OFFSET -5.34813 0.0 0.0
						CHANNELS 6 Xposition Yposition Zposition Zrotation Xrotation Yrotation 
						JOINT LowerArm_R
						{
							OFFSET -24.3289 0.000322201 0.0
							CHANNELS 6 Xposition Yposition Zposition Zrotation Xrotation Yrotation 
							JOINT Hand_R
							{
								OFFSET -22.2915 -0.000108084 0.0
								CHANNELS 6 Xposition Yposition Zposition Zrotation Xrotation Yrotation 
								End Site
								{
									OFFSET 0.0 0.0 0.0
								}
							}
						}
					}
				}
			}
		}
		JOINT UpperLeg_L
		{
			OFFSET -2.19248 -6.46944 0.0
			CHANNELS 6 Xposition Yposition Zposition Zrotation Xrotation Yrotation 
			JOINT LowerLeg_L
			{
				OFFSET 39.0811 0.0 -1.23785e-05
				CHANNELS 6 Xposition Yposition Zposition Zrotation Xrotation Yrotation 
				JOINT Foot_L
				{
					OFFSET 40.9854 0.0 -1.26872e-05
					CHANNELS 6 Xposition Yposition Zposition Zrotation Xrotation Yrotation 
					JOINT Toes_L
					{
						OFFSET 11.7543 0.0 0.0
						CHANNELS 6 Xposition Yposition Zposition Zrotation Xrotation Yrotation 
						End Site
						{
							OFFSET 0.0 0.0 0.0
						}
					}
				}
			}
		}
		JOINT UpperLeg_R
		{
			OFFSET -2.19251 6.46944 0.0
			CHANNELS 6 Xposition Yposition Zposition Zrotation Xrotation Yrotation 
			JOINT LowerLeg_R
			{
				OFFSET -39.0811 -0.00228153 -0.0401928
				CHANNELS 6 Xposition Yposition Zposition Zrotation Xrotation Yrotation 
				JOINT Foot_R
				{
					OFFSET -40.9854 0.0 0.0
					CHANNELS 6 Xposition Yposition Zposition Zrotation Xrotation Yrotation 
					JOINT Toes_R
					{
						OFFSET -11.7543 0.0 0.0
						CHANNELS 6 Xposition Yposition Zposition Zrotation Xrotation Yrotation 
						End Site
						{
							OFFSET 0.0 0.0 0.0
						}
					}
				}
			}
		}
	}
}
MOTION
Frames:	7
Frame Time:	0.0333333
0.000000 0.000000 0.000000 0.000000 0.000000 -0.000000 -2.756920 93.119000 2.606560 87.220800 -0.360192 -3.553160 15.735700 0.000005 -0.000001 -104.644000 89.406500 105.433000 8.984550 -0.406207 -0.000000 -8.915340 0.184309 1.597380 16.377300 -0.000001 -0.000001 -8.518000 2.212110 -1.687670 6.456720 -0.000001 -0.000000 4.068750 2.989200 -1.506770 12.994200 -0.242716 4.980390 -88.311600 -3.210700 -62.242400 5.348090 -0.000007 -0.000001 -51.501500 -60.880500 -83.103900 24.328600 0.000019 0.000005 0.000058 -4.364420 0.000001 22.291600 -0.000001 0.000005 41.630200 3.317810 33.242700 12.994500 -0.242716 -4.980390 93.221700 -6.333530 -62.966600 -5.348130 -0.000001 -0.000004 -62.571500 -62.410300 -86.760600 -24.328900 0.000322 -0.000009 -0.001032 -49.775300 -0.000349 -22.291500 -0.000108 -0.000004 48.322600 4.805320 11.214400 -2.192480 -6.469440 -0.000000 -170.714000 -5.481320 -1.295460 39.081100 -0.000007 -0.000012 -0.021211 0.111319 10.787700 40.985400 -0.000006 -0.000013 -4.606830 13.840400 -68.368800 11.754300 -0.000000 0.000003 -0.001706 0.192606 -8.762930 -2.192510 6.469440 -0.000001 179.229000 7.081870 -178.858000 -39.081100 -0.002282 -0.040193 0.001253 0.018015 6.623530 -40.985400 0.000008 0.000006 -8.351330 5.668940 -65.742700 -11.754300 -0.000006 -0.000006 -0.010749 0.276821 -5.325320
0.000000 0.000000 0.000000 0.000000 0.000000 -0.000000 -2.721890 93.108300 2.739280 87.274400 -0.409977 -3.431330 15.735700 0.000005 -0.000001 -99.090200 89.352700 99.911100 8.984550 -0.406207 -0.000000 -9.044390 0.083527 1.652960 16.377300 -0.000001 -0.000001 -8.033970 2.302510 -1.770410 6.456720 -0.000001 -0.000000 4.344350 3.118080 -1.489640 12.994200 -0.242716 4.980390 -88.243600 -3.302510 -61.973700 5.348090 -0.000007 -0.000001 -52.952000 -61.759600 -90.331800 24.328600 0.000019 0.000005 -0.005491 -3.191300 -0.101581 22.291600 -0.000001 0.000005 42.372300 3.523040 30.652600 12.994500 -0.242716 -4.980390 93.236600 -6.241460 -62.519200 -5.348130 -0.000001 -0.000004 -61.858100 -62.328300 -92.053600 -24.328900 0.000322 -0.000009 -0.000711 -44.316700 -0.000288 -22.291500 -0.000108 -0.000004 46.029600 4.899260 9.388910 -2.192480 -6.469440 -0.000000 -170.764000 -5.425530 -1.000850 39.081100 -0.000007 -0.000012 -0.019969 0.106312 10.638000 40.985400 -0.000006 -0.000013 -4.710980 13.815000 -68.294000 11.754300 -0.000000 0.000003 -0.001692 0.192421 -8.770470 -2.192510 6.469440 -0.000001 179.102000 7.074220 -178.595000 -39.081100 -0.002282 -0.040193 0.001041 0.020138 6.524560 -40.985400 0.000008 0.000006 -8.478000 5.727520 -65.706200 -11.754300 -0.000006 -0.000006 -0.010674 0.276274 -5.347700
0.000000 0.000000 0.000000 0.000000 0.000000 -0.000000 -2.663260 93.080900 2.870440 87.352900 -0.557826 -3.217150 15.735700 0.000005 -0.000001 -93.971800 89.336800 94.831300 8.984550 -0.406207 -0.000000 -9.088320 -0.034703 1.720940 16.377300 -0.000001 -0.000001 -7.524530 2.425540 -1.962370 6.456720 -0.000001 -0.000000 4.541440 3.264420 -1.411640 12.994200 -0.242716 4.980390 -88.272700 -3.204700 -61.655400 5.348090 -0.000007 -0.000001 -54.718800 -62.113200 -97.453700 24.328600 0.000019 0.000005 -0.048940 -1.130410 -2.498090 22.291600 -0.000001 0.000005 42.711600 3.733630 27.892800 12.994500 -0.242716 -4.980390 93.260100 -6.209520 -62.227900 -5.348130 -0.000001 -0.000004 -62.857500 -62.019300 -98.473400 -24.328900 0.000322 -0.000009 -0.000425 -38.467000 -0.000235 -22.291500 -0.000108 -0.000004 43.325600 4.993120 7.458670 -2.192480 -6.469440 -0.000000 -170.867000 -5.595070 -0.674489 39.081100 -0.000007 -0.000012 -0.018041 0.095721 10.673000 40.985400 -0.000006 -0.000013 -4.571440 13.867000 -68.397900 11.754300 -0.000000 0.000003 -0.001746 0.193120 -8.742030 -2.192510 6.469440 -0.000001 178.949000 6.827120 -178.489000 -39.081100 -0.002282 -0.040193 0.000771 0.021243 6.907530 -40.985400 0.000008 0.000006 -8.485260 5.674260 -65.981800 -11.754300 -0.000006 -0.000006 -0.010594 0.275692 -5.371540
0.000000 0.000000 0.000000 0.000000 0.000000 -0.000000 -2.607490 93.047600 2.980980 87.412000 -0.736127 -2.932500 15.735700 0.000005 -0.000001 -89.581800 89.339200 90.503400 8.984550 -0.406207 -0.000000 -9.085680 -0.144972 1.836820 16.377300 -0.000001 -0.000001 -7.017860 2.622200 -2.240770 6.456720 -0.000001 -0.000000 4.788340 3.373260 -1.400690 12.994200 -0.242716 4.980390 -88.384600 -2.983190 -61.547100 5.348090 -0.000007 -0.000001 -55.893900 -62.089500 -103.400000 24.328600 0.000019 0.000005 0.227120 2.261150 -5.719710 22.291600 -0.000001 0.000005 42.551000 3.937430 25.107500 12.994500 -0.242716 -4.980390 93.314400 -6.302190 -62.185700 -5.348130 -0.000001 -0.000004 -61.627500 -61.776400 -102.334000 -24.328900 0.000322 -0.000009 -1.512200 -31.201300 -2.917650 -22.291500 -0.000108 -0.000004 41.463100 5.089140 5.355600 -2.192480 -6.469440 -0.000000 -170.951000 -5.827210 -0.322936 39.081100 -0.000007 -0.000012 -0.015003 0.078626 10.802300 40.985400 -0.000006 -0.000013 -4.274690 13.943300 -68.605500 11.754300 -0.000000 0.000003 -0.001878 0.194809 -8.673340 -2.192510 6.469440 -0.000001 178.839000 6.509420 -178.383000 -39.081100 -0.002282 -0.040193 0.000428 0.022431 7.403790 -40.985400 0.000008 0.000006 -8.275050 5.519880 -66.399400 -11.754300 -0.000006 -0.000006 -0.010799 0.277185 -5.310440
0.000000 0.000000 0.000000 0.000000 0.000000 -0.000000 -2.534060 93.003300 3.066920 87.474600 -0.986052 -2.629750 15.735700 0.000005 -0.000001 -87.213600 89.361700 88.210400 8.984550 -0.406207 -0.000000 -9.038650 -0.207845 1.982640 16.377300 -0.000001 -0.000001 -6.592990 2.830110 -2.486520 6.456720 -0.000001 -0.000000 5.070080 3.488490 -1.559800 12.994200 -0.242716 4.980390 -88.549700 -2.693370 -61.685000 5.348090 -0.000007 -0.000001 -56.941900 -61.790000 -108.160000 24.328600 0.000019 0.000005 1.339860 7.359940 -10.336900 22.291600 -0.000001 0.000005 42.161200 4.106340 22.694900 12.994500 -0.242716 -4.980390 93.264400 -6.265550 -62.407500 -5.348130 -0.000001 -0.000004 -60.516800 -61.729800 -105.544000 -24.328900 0.000322 -0.000009 -3.058860 -22.421100 -7.978820 -22.291500 -0.000108 -0.000004 39.378600 5.235710 1.794840 -2.192480 -6.469440 -0.000000 -171.075000 -6.115710 -0.004872 39.081100 -0.000007 -0.000012 -0.009942 0.050929 11.045800 40.985400 -0.000006 -0.000013 -3.730440 13.967900 -68.915500 11.754300 -0.000000 0.000003 -0.001637 0.191710 -8.799370 -2.192510 6.469440 -0.000001 178.736000 6.167260 -178.395000 -39.081100 -0.002282 -0.040193 0.000775 0.017979 8.126070 -40.985400 0.000008 0.000006 -7.871890 5.380120 -66.925300 -11.754300 -0.000006 -0.000006 -0.010887 0.277818 -5.284520
0.000000 0.000000 0.000000 0.000000 0.000000 -0.000000 -2.470500 92.963500 3.155290 87.536700 -1.256080 -2.242350 15.735700 0.000005 -0.000001 -84.847900 89.433100 85.930500 8.984550 -0.406207 -0.000000 -8.891850 -0.258629 2.150720 16.377300 -0.000001 -0.000001 -6.420610 3.118810 -2.884750 6.456720 -0.000001 -0.000000 5.496880 3.517470 -1.488170 12.994200 -0.242716 4.980390 -88.705900 -2.423600 -61.888600 5.348090 -0.000007 -0.000001 -58.201200 -61.063500 -111.905000 24.328600 0.000019 0.000005 4.022810 13.694100 -16.536100 22.291600 -0.000001 0.000005 41.044700 4.217780 21.043600 12.994500 -0.242716 -4.980390 93.217100 -6.280790 -62.806400 -5.348130 -0.000001 -0.000004 -59.854200 -61.700900 -108.193000 -24.328900 0.000322 -0.000009 -2.830930 -11.863200 -13.534200 -22.291500 -0.000108 -0.000004 37.246000 5.354060 -1.508060 -2.192480 -6.469440 -0.000000 -171.161000 -6.388650 0.401877 39.081100 -0.000007 -0.000012 -0.006731 0.033731 11.283200 40.985400 -0.000006 -0.000013 -3.405670 13.992900 -69.198300 11.754300 -0.000000 0.000003 -0.001725 0.192848 -8.753080 -2.192510 6.469440 -0.000001 178.611000 5.862300 -178.240000 -39.081100 -0.002282 -0.040193 0.001219 0.013888 8.686250 -40.985400 0.000008 0.000006 -7.536670 5.346590 -67.330300 -11.754300 -0.000006 -0.000006 -0.010956 0.278318 -5.264060
0.000000 0.000000 0.000000 0.000000 0.000000 -0.000000 -2.428170 92.931700 3.200470 87.549900 -1.514520 -1.951290 15.735700 0.000005 -0.000001 -83.942100 89.498800 85.125000 8.984550 -0.406207 -0.000000 -8.758940 -0.275802 2.350620 16.377300 -0.000001 -0.000001 -6.315220 3.280720 -3.100430 6.456720 -0.000001 -0.000000 5.758820 3.558500 -1.687580 12.994200 -0.242716 4.980390 -88.905100 -2.064190 -62.049600 5.348090 -0.000007 -0.000001 -58.898700 -59.939600 -114.218000 24.328600 0.000019 0.000005 8.881740 20.262200 -24.280900 22.291600 -0.000001 0.000005 40.205300 4.331610 19.301400 12.994500 -0.242716 -4.980390 93.161800 -6.222300 -62.993600 -5.348130 -0.000001 -0.000004 -57.767800 -61.742900 -109.132000 -24.328900 0.000322 -0.000009 -0.817363 -2.348810 -19.221700 -22.291500 -0.000108 -0.000004 36.209300 5.445420 -4.477370 -2.192480 -6.469440 -0.000000 -171.213000 -6.556080 0.713025 39.081100 -0.000007 -0.000012 -0.001943 0.009578 11.461300 40.985400 -0.000006 -0.000013 -3.010020 13.889400 -69.434900 11.754300 -0.000000 0.000003 -0.001691 0.192409 -8.770950 -2.192510 6.469440 -0.000001 178.563000 5.582720 -178.153000 -39.081100 -0.002282 -0.040193 0.002037 0.008106 9.132150 -40.985400 0.000008 0.000006 -7.285030 5.299710 -67.651200 -11.754300 -0.000006 -0.000006 -0.010816 0.277306 -5.305490
